<svg xmlns="http://www.w3.org/2000/svg" viewBox="0 0 700.9 111.5"><defs><style>.cls-1{fill:#1b83ea;}.cls-2{opacity:0.75;}.cls-3{opacity:0.5;}.cls-4{fill:#fff;}</style></defs><g id="Layer_2" data-name="Layer 2"><g id="Layer_1-2" data-name="Layer 1"><rect class="cls-1" x="35.04" y="37.5" width="38.32" height="38.32" transform="translate(-24.19 54.92) rotate(-45)"/><g class="cls-2"><rect class="cls-1" x="7.94" y="10.4" width="38.32" height="38.32" transform="translate(-12.97 27.82) rotate(-45)"/></g><g class="cls-3"><rect class="cls-1" x="7.94" y="64.6" width="38.32" height="38.32" transform="translate(-51.29 43.69) rotate(-45)"/></g></g><g id="Layer_1_copy" data-name="Layer 1 copy"><path class="cls-4" d="M150.07,57.15V56c12.67-2.8,20.48-9.87,20.48-23.42,0-17.23-10.76-25.63-34.47-25.63H106V42.39L120.3,56.66,106,70.92V110h29.31c24.6,0,38-8.4,38-28.58C173.34,65.4,163.48,58.62,150.07,57.15ZM125.62,21.21h9.13c9.87,0,15.91,3.83,15.91,14.14,0,10.16-6.19,14.14-15.91,14.14h-9.13Zm10.16,74.53H125.62V63.63h10.16c11.49,0,17.68,4.86,17.68,16.05S147.27,95.74,135.78,95.74Z"/><rect class="cls-4" x="217.38" width="23.13" height="20.47"/><polygon class="cls-4" points="238.59 33.14 197.2 33.14 197.2 46.98 219.14 46.98 219.14 96.18 194.69 96.18 194.69 110.03 260.39 110.03 260.39 96.18 238.59 96.18 238.59 33.14"/><path class="cls-4" d="M327.1,65l-16.79-3.69c-7.22-1.76-9.28-4.12-9.28-7.51,0-4.86,6.19-7.81,16.35-7.81a51.84,51.84,0,0,1,19.89,3.83h5V35.2a78.36,78.36,0,0,0-24.15-3.53c-23.13,0-36.53,9-36.53,24.15,0,10.75,6.48,17.38,20.47,20.62l16.2,3.69c6.93,1.62,9.87,3.83,9.87,7.8,0,6-6.92,9-18.56,9a57.27,57.27,0,0,1-21.79-4.13h-5v14.73a92.13,92.13,0,0,0,27.25,4c23.27,0,37.41-9,37.41-25.48C347.43,73.79,339.33,67.61,327.1,65Z"/><path class="cls-4" d="M415.18,53.32l-13.56-5.6c-9.13-3.68-12.22-8.25-12.22-14,0-7.81,5.89-12.67,18-12.67a41.36,41.36,0,0,1,18.71,4.27h5V9.87c-6.92-2.95-16.2-4.42-24.59-4.42-22.54,0-37.27,11.19-37.27,30.19,0,14.59,8.84,22.83,21.65,28l12.82,5.15c9.42,3.69,12.52,7.52,12.52,13.56,0,8.83-7.07,13.55-20.92,13.55a45.27,45.27,0,0,1-20.77-4.57h-5v15.61a73.85,73.85,0,0,0,26.8,4.57c25.78,0,40.07-11.2,40.07-30.79C436.39,66.43,428.87,58.77,415.18,53.32Z"/><path class="cls-4" d="M490.88,31.67c-23.57,0-37.71,14.14-37.71,39.91s14.14,39.92,37.71,39.92,37.7-14.14,37.7-39.92S514.44,31.67,490.88,31.67Zm0,65.54c-11.2,0-17.82-8.25-17.82-25.63s6.62-25.77,17.82-25.77,17.82,8.25,17.82,25.77S502.07,97.21,490.88,97.21Z"/><path class="cls-4" d="M567.31,33.29v3.09H547.72V50.23h19.59v46H547.72V110h65V96.18H586.76v-46h25.18V36.38H586.76V32.7c0-11.49,6.48-17.53,18.41-17.53a46.17,46.17,0,0,1,11.34,1.47V2.06A57.74,57.74,0,0,0,602.08.29C580.42.29,567.31,12.37,567.31,33.29Z"/><path class="cls-4" d="M700.9,50.23V36.38H670.12V11.49h-19.3V36.38H629.17V50.23h21.65V81.45c0,19.89,10.31,30.05,31.52,30.05,6.63,0,13.7-1,18-2.51V94.56a53,53,0,0,1-13.7,2.06c-11.48,0-16.49-4.71-16.49-15.46V50.23Z"/></g></g></svg>